<?xml version="1.0" standalone="no"?>
<!DOCTYPE svg PUBLIC "-//W3C//DTD SVG 20010904//EN"
 "http://www.w3.org/TR/2001/REC-SVG-20010904/DTD/svg10.dtd">
<svg version="1.0" xmlns="http://www.w3.org/2000/svg"
 width="144.000000pt" height="391.000000pt" viewBox="0 0 144.000000 391.000000"
 preserveAspectRatio="xMidYMid meet">
<metadata>
Created by potrace 1.14, written by Peter Selinger 2001-2017
</metadata>
<g transform="translate(0.000000,391.000000) scale(0.100000,-0.100000)"
fill="#000000" stroke="none">
<path d="M600 1958 l0 -48 -87 0 c-47 0 -84 -2 -81 -5 3 -3 229 -5 503 -5 274
0 500 2 503 5 3 3 -34 5 -81 5 -50 0 -87 4 -87 10 0 5 7 7 15 4 21 -8 45 14
45 41 0 28 -19 45 -48 42 -19 -1 -22 -7 -22 -49 l0 -48 -325 0 c-203 0 -325 4
-325 10 0 5 7 7 15 4 21 -8 45 14 45 41 0 28 -19 45 -48 42 -19 -1 -22 -7 -22
-49z"/>
<path d="M440 518 c0 -26 1 -51 3 -54 3 -8 347 -7 355 0 3 3 -20 6 -51 6 l-57
0 0 48 c0 42 -3 48 -22 49 -29 3 -48 -14 -48 -42 0 -27 24 -49 45 -41 8 3 15
1 15 -4 0 -6 -47 -10 -115 -10 -68 0 -115 4 -115 10 0 5 7 7 15 4 21 -8 45 14
45 41 0 28 -19 45 -48 42 -19 -1 -22 -7 -22 -49z"/>
</g>
</svg>
